  0
SECTION
  2
HEADER
  9
$ACADVER
  1
AC1024
  9
$ACADMAINTVER
 70
6
  9
$DWGCODEPAGE
  3
ANSI_1252
  9
$LASTSAVEDBY
  1
ezdxf
  9
$INSBASE
 10
0.0
 20
0.0
 30
0.0
  9
$EXTMIN
 10
1e+20
 20
1e+20
 30
1e+20
  9
$EXTMAX
 10
-1e+20
 20
-1e+20
 30
-1e+20
  9
$LIMMIN
 10
0.0
 20
0.0
  9
$LIMMAX
 10
420.0
 20
297.0
  9
$ORTHOMODE
 70
0
  9
$REGENMODE
 70
1
  9
$FILLMODE
 70
1
  9
$QTEXTMODE
 70
0
  9
$MIRRTEXT
 70
1
  9
$LTSCALE
 40
1.0
  9
$ATTMODE
 70
1
  9
$TEXTSIZE
 40
2.5
  9
$TRACEWID
 40
1.0
  9
$TEXTSTYLE
  7
Standard
  9
$CLAYER
  8
0
  9
$CELTYPE
  6
ByLayer
  9
$CECOLOR
 62
256
  9
$CELTSCALE
 40
1.0
  9
$DISPSILH
 70
0
  9
$DIMSCALE
 40
1.0
  9
$DIMASZ
 40
2.5
  9
$DIMEXO
 40
0.625
  9
$DIMDLI
 40
3.75
  9
$DIMRND
 40
0.0
  9
$DIMDLE
 40
0.0
  9
$DIMEXE
 40
1.25
  9
$DIMTP
 40
0.0
  9
$DIMTM
 40
0.0
  9
$DIMTXT
 40
2.5
  9
$DIMCEN
 40
2.5
  9
$DIMTSZ
 40
0.0
  9
$DIMTOL
 70
0
  9
$DIMLIM
 70
0
  9
$DIMTIH
 70
0
  9
$DIMTOH
 70
0
  9
$DIMSE1
 70
0
  9
$DIMSE2
 70
0
  9
$DIMTAD
 70
1
  9
$DIMZIN
 70
8
  9
$DIMBLK
  1

  9
$DIMASO
 70
1
  9
$DIMSHO
 70
1
  9
$DIMPOST
  1

  9
$DIMAPOST
  1

  9
$DIMALT
 70
0
  9
$DIMALTD
 70
3
  9
$DIMALTF
 40
0.03937007874
  9
$DIMLFAC
 40
1.0
  9
$DIMTOFL
 70
1
  9
$DIMTVP
 40
0.0
  9
$DIMTIX
 70
0
  9
$DIMSOXD
 70
0
  9
$DIMSAH
 70
0
  9
$DIMBLK1
  1

  9
$DIMBLK2
  1

  9
$DIMSTYLE
  2
ISO-25
  9
$DIMCLRD
 70
0
  9
$DIMCLRE
 70
0
  9
$DIMCLRT
 70
0
  9
$DIMTFAC
 40
1.0
  9
$DIMGAP
 40
0.625
  9
$DIMJUST
 70
0
  9
$DIMSD1
 70
0
  9
$DIMSD2
 70
0
  9
$DIMTOLJ
 70
0
  9
$DIMTZIN
 70
8
  9
$DIMALTZ
 70
0
  9
$DIMALTTZ
 70
0
  9
$DIMUPT
 70
0
  9
$DIMDEC
 70
2
  9
$DIMTDEC
 70
2
  9
$DIMALTU
 70
2
  9
$DIMALTTD
 70
3
  9
$DIMTXSTY
  7
Standard
  9
$DIMAUNIT
 70
0
  9
$DIMADEC
 70
0
  9
$DIMALTRND
 40
0.0
  9
$DIMAZIN
 70
0
  9
$DIMDSEP
 70
44
  9
$DIMATFIT
 70
3
  9
$DIMFRAC
 70
0
  9
$DIMLDRBLK
  1

  9
$DIMLUNIT
 70
2
  9
$DIMLWD
 70
-2
  9
$DIMLWE
 70
-2
  9
$DIMTMOVE
 70
0
  9
$DIMFXL
 40
1.0
  9
$DIMFXLON
 70
0
  9
$DIMJOGANG
 40
0.785398163397
  9
$DIMTFILL
 70
0
  9
$DIMTFILLCLR
 70
0
  9
$DIMARCSYM
 70
0
  9
$DIMLTYPE
  6

  9
$DIMLTEX1
  6

  9
$DIMLTEX2
  6

  9
$DIMTXTDIRECTION
 70
0
  9
$LUNITS
 70
2
  9
$LUPREC
 70
4
  9
$SKETCHINC
 40
1.0
  9
$FILLETRAD
 40
10.0
  9
$AUNITS
 70
0
  9
$AUPREC
 70
2
  9
$MENU
  1
.
  9
$ELEVATION
 40
0.0
  9
$PELEVATION
 40
0.0
  9
$THICKNESS
 40
0.0
  9
$LIMCHECK
 70
0
  9
$CHAMFERA
 40
0.0
  9
$CHAMFERB
 40
0.0
  9
$CHAMFERC
 40
0.0
  9
$CHAMFERD
 40
0.0
  9
$SKPOLY
 70
0
  9
$TDCREATE
 40
2461244.4669560185
  9
$TDUCREATE
 40
2458532.153996898
  9
$TDUPDATE
 40
2461244.4669560185
  9
$TDUUPDATE
 40
2458532.1544311
  9
$TDINDWG
 40
0.0
  9
$TDUSRTIMER
 40
0.0
  9
$USRTIMER
 70
1
  9
$ANGBASE
 50
0.0
  9
$ANGDIR
 70
0
  9
$PDMODE
 70
0
  9
$PDSIZE
 40
0.0
  9
$PLINEWID
 40
0.0
  9
$SPLFRAME
 70
0
  9
$SPLINETYPE
 70
6
  9
$SPLINESEGS
 70
8
  9
$HANDSEED
  5
34
  9
$SURFTAB1
 70
6
  9
$SURFTAB2
 70
6
  9
$SURFTYPE
 70
6
  9
$SURFU
 70
6
  9
$SURFV
 70
6
  9
$UCSBASE
  2

  9
$UCSNAME
  2

  9
$UCSORG
 10
0.0
 20
0.0
 30
0.0
  9
$UCSXDIR
 10
1.0
 20
0.0
 30
0.0
  9
$UCSYDIR
 10
0.0
 20
1.0
 30
0.0
  9
$UCSORTHOREF
  2

  9
$UCSORTHOVIEW
 70
0
  9
$UCSORGTOP
 10
0.0
 20
0.0
 30
0.0
  9
$UCSORGBOTTOM
 10
0.0
 20
0.0
 30
0.0
  9
$UCSORGLEFT
 10
0.0
 20
0.0
 30
0.0
  9
$UCSORGRIGHT
 10
0.0
 20
0.0
 30
0.0
  9
$UCSORGFRONT
 10
0.0
 20
0.0
 30
0.0
  9
$UCSORGBACK
 10
0.0
 20
0.0
 30
0.0
  9
$PUCSBASE
  2

  9
$PUCSNAME
  2

  9
$PUCSORG
 10
0.0
 20
0.0
 30
0.0
  9
$PUCSXDIR
 10
1.0
 20
0.0
 30
0.0
  9
$PUCSYDIR
 10
0.0
 20
1.0
 30
0.0
  9
$PUCSORTHOREF
  2

  9
$PUCSORTHOVIEW
 70
0
  9
$PUCSORGTOP
 10
0.0
 20
0.0
 30
0.0
  9
$PUCSORGBOTTOM
 10
0.0
 20
0.0
 30
0.0
  9
$PUCSORGLEFT
 10
0.0
 20
0.0
 30
0.0
  9
$PUCSORGRIGHT
 10
0.0
 20
0.0
 30
0.0
  9
$PUCSORGFRONT
 10
0.0
 20
0.0
 30
0.0
  9
$PUCSORGBACK
 10
0.0
 20
0.0
 30
0.0
  9
$USERI1
 70
0
  9
$USERI2
 70
0
  9
$USERI3
 70
0
  9
$USERI4
 70
0
  9
$USERI5
 70
0
  9
$USERR1
 40
0.0
  9
$USERR2
 40
0.0
  9
$USERR3
 40
0.0
  9
$USERR4
 40
0.0
  9
$USERR5
 40
0.0
  9
$WORLDVIEW
 70
1
  9
$SHADEDGE
 70
3
  9
$SHADEDIF
 70
70
  9
$TILEMODE
 70
1
  9
$MAXACTVP
 70
64
  9
$PINSBASE
 10
0.0
 20
0.0
 30
0.0
  9
$PLIMCHECK
 70
0
  9
$PEXTMIN
 10
1e+20
 20
1e+20
 30
1e+20
  9
$PEXTMAX
 10
-1e+20
 20
-1e+20
 30
-1e+20
  9
$PLIMMIN
 10
0.0
 20
0.0
  9
$PLIMMAX
 10
420.0
 20
297.0
  9
$UNITMODE
 70
0
  9
$VISRETAIN
 70
1
  9
$PLINEGEN
 70
0
  9
$PSLTSCALE
 70
1
  9
$TREEDEPTH
 70
3020
  9
$CMLSTYLE
  2
Standard
  9
$CMLJUST
 70
0
  9
$CMLSCALE
 40
20.0
  9
$PROXYGRAPHICS
 70
1
  9
$MEASUREMENT
 70
1
  9
$CELWEIGHT
370
-1
  9
$ENDCAPS
280
0
  9
$JOINSTYLE
280
0
  9
$LWDISPLAY
290
0
  9
$INSUNITS
 70
6
  9
$HYPERLINKBASE
  1

  9
$STYLESHEET
  1

  9
$XEDIT
290
1
  9
$CEPSNTYPE
380
0
  9
$PSTYLEMODE
290
1
  9
$FINGERPRINTGUID
  2
{96F36750-22EB-47CF-8416-E97B34559AF0}
  9
$VERSIONGUID
  2
{A15725A7-FFF5-4394-A8B0-E63B20AB1850}
  9
$EXTNAMES
290
1
  9
$PSVPSCALE
 40
0.0
  9
$OLESTARTUP
290
0
  9
$SORTENTS
280
127
  9
$INDEXCTL
280
0
  9
$HIDETEXT
280
1
  9
$XCLIPFRAME
280
1
  9
$HALOGAP
280
0
  9
$OBSCOLOR
 70
257
  9
$OBSLTYPE
280
0
  9
$INTERSECTIONDISPLAY
280
0
  9
$INTERSECTIONCOLOR
 70
257
  9
$DIMASSOC
280
2
  9
$PROJECTNAME
  1

  9
$CAMERADISPLAY
290
0
  9
$LENSLENGTH
 40
50.0
  9
$CAMERAHEIGHT
 40
0.0
  9
$STEPSPERSEC
 40
24.0
  9
$STEPSIZE
 40
100.0
  9
$3DDWFPREC
 40
2.0
  9
$PSOLWIDTH
 40
0.005
  9
$PSOLHEIGHT
 40
0.08
  9
$LOFTANG1
 40
1.570796326795
  9
$LOFTANG2
 40
1.570796326795
  9
$LOFTMAG1
 40
0.0
  9
$LOFTMAG2
 40
0.0
  9
$LOFTPARAM
 70
7
  9
$LOFTNORMALS
280
1
  9
$LATITUDE
 40
37.795
  9
$LONGITUDE
 40
-122.394
  9
$NORTHDIRECTION
 40
0.0
  9
$TIMEZONE
 70
-8000
  9
$LIGHTGLYPHDISPLAY
280
1
  9
$TILEMODELIGHTSYNCH
280
1
  9
$CMATERIAL
347
20
  9
$SOLIDHIST
280
0
  9
$SHOWHIST
280
1
  9
$DWFFRAME
280
2
  9
$DGNFRAME
280
2
  9
$REALWORLDSCALE
290
1
  9
$INTERFERECOLOR
 62
256
  9
$CSHADOW
280
0
  9
$SHADOWPLANELOCATION
 40
0.0
  0
ENDSEC
  0
SECTION
  2
CLASSES
  0
CLASS
  1
ACDBDICTIONARYWDFLT
  2
AcDbDictionaryWithDefault
  3
ObjectDBX Classes
 90
0
 91
0
280
0
281
0
  0
CLASS
  1
SUN
  2
AcDbSun
  3
SCENEOE
 90
1153
 91
0
280
0
281
0
  0
CLASS
  1
VISUALSTYLE
  2
AcDbVisualStyle
  3
ObjectDBX Classes
 90
4095
 91
0
280
0
281
0
  0
CLASS
  1
MATERIAL
  2
AcDbMaterial
  3
ObjectDBX Classes
 90
1153
 91
0
280
0
281
0
  0
CLASS
  1
SCALE
  2
AcDbScale
  3
ObjectDBX Classes
 90
1153
 91
0
280
0
281
0
  0
CLASS
  1
TABLESTYLE
  2
AcDbTableStyle
  3
ObjectDBX Classes
 90
4095
 91
0
280
0
281
0
  0
CLASS
  1
MLEADERSTYLE
  2
AcDbMLeaderStyle
  3
ACDB_MLEADERSTYLE_CLASS
 90
4095
 91
0
280
0
281
0
  0
CLASS
  1
DICTIONARYVAR
  2
AcDbDictionaryVar
  3
ObjectDBX Classes
 90
0
 91
0
280
0
281
0
  0
CLASS
  1
CELLSTYLEMAP
  2
AcDbCellStyleMap
  3
ObjectDBX Classes
 90
1152
 91
0
280
0
281
0
  0
CLASS
  1
MENTALRAYRENDERSETTINGS
  2
AcDbMentalRayRenderSettings
  3
SCENEOE
 90
1024
 91
0
280
0
281
0
  0
CLASS
  1
ACDBDETAILVIEWSTYLE
  2
AcDbDetailViewStyle
  3
ObjectDBX Classes
 90
1025
 91
0
280
0
281
0
  0
CLASS
  1
ACDBSECTIONVIEWSTYLE
  2
AcDbSectionViewStyle
  3
ObjectDBX Classes
 90
1025
 91
0
280
0
281
0
  0
CLASS
  1
RASTERVARIABLES
  2
AcDbRasterVariables
  3
ISM
 90
0
 91
0
280
0
281
0
  0
CLASS
  1
LAYOUT
  2
AcDbLayout
  3
ObjectDBX Classes
 90
0
 91
0
280
0
281
0
  0
CLASS
  1
ACDBPLACEHOLDER
  2
AcDbPlaceHolder
  3
ObjectDBX Classes
 90
0
 91
0
280
0
281
0
  0
ENDSEC
  0
SECTION
  2
TABLES
  0
TABLE
  2
VPORT
  5
8
330
0
100
AcDbSymbolTable
 70
1
  0
VPORT
  5
23
330
8
100
AcDbSymbolTableRecord
100
AcDbViewportTableRecord
  2
*Active
 70
0
 10
0.0
 20
0.0
 11
1.0
 21
1.0
 12
0.0
 22
0.0
 13
0.0
 23
0.0
 14
0.5
 24
0.5
 15
0.5
 25
0.5
 16
0.0
 26
0.0
 36
1.0
 17
0.0
 27
0.0
 37
0.0
 40
1000.0
 41
1.34
 42
50.0
 43
0.0
 44
0.0
 50
0.0
 51
0.0
 71
0
 72
1000
 73
1
 74
3
 75
0
 76
0
 77
0
 78
0
281
0
 65
0
146
0.0
  0
ENDTAB
  0
TABLE
  2
LTYPE
  5
2
330
0
100
AcDbSymbolTable
 70
3
  0
LTYPE
  5
24
330
2
100
AcDbSymbolTableRecord
100
AcDbLinetypeTableRecord
  2
ByBlock
 70
0
  3

 72
65
 73
0
 40
0.0
  0
LTYPE
  5
25
330
2
100
AcDbSymbolTableRecord
100
AcDbLinetypeTableRecord
  2
ByLayer
 70
0
  3

 72
65
 73
0
 40
0.0
  0
LTYPE
  5
26
330
2
100
AcDbSymbolTableRecord
100
AcDbLinetypeTableRecord
  2
Continuous
 70
0
  3

 72
65
 73
0
 40
0.0
  0
ENDTAB
  0
TABLE
  2
LAYER
  5
1
330
0
100
AcDbSymbolTable
 70
2
  0
LAYER
  5
27
330
1
100
AcDbSymbolTableRecord
100
AcDbLayerTableRecord
  2
0
 70
0
 62
7
  6
Continuous
370
-3
390
13
347
21
  0
LAYER
  5
28
330
1
100
AcDbSymbolTableRecord
100
AcDbLayerTableRecord
  2
Defpoints
 70
0
 62
7
  6
Continuous
290
0
370
-3
390
13
347
21
  0
ENDTAB
  0
TABLE
  2
STYLE
  5
5
330
0
100
AcDbSymbolTable
 70
1
  0
STYLE
  5
29
330
5
100
AcDbSymbolTableRecord
100
AcDbTextStyleTableRecord
  2
Standard
 70
0
 40
0.0
 41
1.0
 50
0.0
 71
0
 42
2.5
  3
txt
  4

  0
ENDTAB
  0
TABLE
  2
VIEW
  5
7
330
0
100
AcDbSymbolTable
 70
0
  0
ENDTAB
  0
TABLE
  2
UCS
  5
6
330
0
100
AcDbSymbolTable
 70
0
  0
ENDTAB
  0
TABLE
  2
APPID
  5
3
330
0
100
AcDbSymbolTable
 70
3
  0
APPID
  5
2A
330
3
100
AcDbSymbolTableRecord
100
AcDbRegAppTableRecord
  2
ACAD
 70
0
  0
APPID
  5
31
330
3
100
AcDbSymbolTableRecord
100
AcDbRegAppTableRecord
  2
HATCHBACKGROUNDCOLOR
 70
0
  0
APPID
  5
32
330
3
100
AcDbSymbolTableRecord
100
AcDbRegAppTableRecord
  2
EZDXF
 70
0
  0
ENDTAB
  0
TABLE
  2
DIMSTYLE
  5
4
330
0
100
AcDbSymbolTable
 70
1
100
AcDbDimStyleTable
  0
DIMSTYLE
105
2B
330
4
100
AcDbSymbolTableRecord
100
AcDbDimStyleTableRecord
  2
Standard
 70
0
 40
1.0
 41
2.5
 42
0.625
 43
3.75
 44
1.25
 45
0.0
 46
0.0
 47
0.0
 48
0.0
 49
2.5
140
2.5
141
2.5
142
0.0
143
0.03937007874
144
1.0
145
0.0
146
1.0
147
0.625
148
0.0
 69
0
 70
0
 71
0
 72
0
 73
0
 74
0
 75
0
 76
0
 77
1
 78
8
 79
3
170
0
171
3
172
1
173
0
174
0
175
0
176
0
177
0
178
0
179
2
271
2
272
2
273
2
274
3
275
0
276
0
277
2
278
44
279
0
280
0
281
0
282
0
283
0
284
8
285
0
286
0
288
0
289
3
290
0
371
-2
372
-2
  0
ENDTAB
  0
TABLE
  2
BLOCK_RECORD
  5
9
330
0
100
AcDbSymbolTable
 70
2
  0
BLOCK_RECORD
  5
17
330
9
100
AcDbSymbolTableRecord
100
AcDbBlockTableRecord
  2
*Model_Space
340
1A
 70
0
280
1
281
0
  0
BLOCK_RECORD
  5
1B
330
9
100
AcDbSymbolTableRecord
100
AcDbBlockTableRecord
  2
*Paper_Space
340
1E
 70
0
280
1
281
0
  0
ENDTAB
  0
ENDSEC
  0
SECTION
  2
BLOCKS
  0
BLOCK
  5
18
330
17
100
AcDbEntity
  8
0
100
AcDbBlockBegin
  2
*Model_Space
 70
0
 10
0.0
 20
0.0
 30
0.0
  3
*Model_Space
  1

  0
ENDBLK
  5
19
330
17
100
AcDbEntity
  8
0
100
AcDbBlockEnd
  0
BLOCK
  5
1C
330
1B
100
AcDbEntity
  8
0
100
AcDbBlockBegin
  2
*Paper_Space
 70
0
 10
0.0
 20
0.0
 30
0.0
  3
*Paper_Space
  1

  0
ENDBLK
  5
1D
330
1B
100
AcDbEntity
  8
0
100
AcDbBlockEnd
  0
ENDSEC
  0
SECTION
  2
ENTITIES
  0
LWPOLYLINE
  5
2F
330
17
100
AcDbEntity
  8
0
100
AcDbPolyline
 90
500
 70
1
 10
23.056491528634954
 20
26.04150809730329
 10
22.96174901916925
 20
26.564377231389187
 10
22.63973879732448
 20
27.015579190929433
 10
22.15697076740815
 20
27.233120061361607
 10
21.727088787521307
 20
27.578060578451968
 10
21.25833104389198
 20
27.82925036762459
 10
20.727519698449296
 20
27.930724322167947
 10
20.440539982597443
 20
28.379369136053587
 10
20.076102229094307
 20
28.741254898936795
 10
19.544536430210787
 20
28.63607569944527
 10
19.04251609914747
 20
28.46432168018462
 10
18.468100758693488
 20
28.466862719751386
 10
17.895632120426946
 20
28.470059150977196
 10
17.358375331112814
 20
28.55493001853125
 10
16.78533776737286
 20
28.554649804538403
 10
16.251340895933115
 20
28.64587424684795
 10
15.686242104182348
 20
28.62943912398261
 10
15.143255051154192
 20
28.558436739785407
 10
14.569627915108018
 20
28.560351150817453
 10
14.03497308927894
 20
28.46828833244937
 10
13.461938018195646
 20
28.468566707116292
 10
12.889231459535347
 20
28.468288210806083
 10
12.316403005397738
 20
28.468473645582428
 10
11.743505143799904
 20
28.468631916196898
 10
11.170598770216099
 20
28.46835585826484
 10
10.597856789118108
 20
28.468356482814023
 10
10.025086276804586
 20
28.46876773850542
 10
9.4766754792336
 20
28.527653060132486
 10
8.916668213756818
 20
28.558601599508545
 10
8.343420830974281
 20
28.5576085102458
 10
7.771080032671761
 20
28.55880275403904
 10
7.1985017694656435
 20
28.559424835874474
 10
6.6380100790474605
 20
28.589226165645726
 10
6.089583291751026
 20
28.64815482308171
 10
5.517008994876631
 20
28.648786195772168
 10
4.944153168953563
 20
28.648737912690905
 10
4.371240624783106
 20
28.648552678404993
 10
3.798103133775981
 20
28.647824429518604
 10
3.255231778211778
 20
28.72016447445245
 10
2.69027571005466
 20
28.739183335916085
 10
2.117062198723626
 20
28.738282322758423
 10
1.5446437297950615
 20
28.7392739933646
 10
0.970833248966302
 20
28.73696009862604
 10
0.4370765729265057
 20
28.829744519155668
 10
-0.0044102266089104955
 20
28.961152704677307
 10
-0.00026126769768298813
 20
29.538173554621057
 10
-0.00011419262577333228
 20
30.111158136222734
 10
-1.839846344227647e-05
 20
30.684090843900623
 10
3.537848029619477e-05
 20
31.25698104925773
 10
5.64383127986912e-05
 20
31.829838160712356
 10
5.4081141421822454e-05
 20
32.40267158668284
 10
3.7607073522198225e-05
 20
32.97549073558749
 10
1.631621645642829e-05
 20
33.54830501584465
 10
-1.206134874901268e-06
 20
34.1211231126752
 10
-1.267642192017887e-05
 20
34.69394733564281
 10
-1.9090131002561814e-05
 20
35.266776676802074
 10
-2.1470889115729527e-05
 20
35.83961009973692
 10
-2.084232325336144e-05
 20
36.412446568031264
 10
-1.8228060409136968e-05
 20
36.98528504526897
 10
-1.4651727576735538e-05
 20
37.558124495033944
 10
-1.1084970589304812e-05
 20
38.130963933546155
 10
-7.900243470419162e-06
 20
38.70380298376588
 10
-5.085827781792541e-06
 20
39.27664165766577
 10
-2.623709306645635e-06
 20
39.84947997359348
 10
-4.958738281991169e-07
 20
40.42231794989673
 10
1.3156928703263357e-06
 20
40.99515560492322
 10
2.829005005710056e-06
 20
41.567992957020635
 10
4.0620767947313485e-06
 20
42.14083002453665
 10
5.032922454169554e-06
 20
42.71366682581902
 10
5.759556200803983e-06
 20
43.28650337921536
 10
6.259992251413967e-06
 20
43.85933970307343
 10
6.552244822778826e-06
 20
44.432175815740905
 10
6.654328131677881e-06
 20
45.00501173556549
 10
6.584256394890458e-06
 20
45.57784748089483
 10
6.360043829195884e-06
 20
46.150683070076695
 10
5.9997046513734775e-06
 20
46.723518521458736
 10
5.521253078202559e-06
 20
47.29635385338866
 10
4.942703326462455e-06
 20
47.869189084214156
 10
4.282069612932488e-06
 20
48.44202423228295
 10
3.5573661543919796e-06
 20
49.014859315942665
 10
2.786607167620259e-06
 20
49.58769435354108
 10
1.9878068693966394e-06
 20
50.16052936342585
 10
1.178979476500453e-06
 20
50.733364363944666
 10
3.78139205711017e-07
 20
51.30619937344523
 10
-3.9669972619233933e-07
 20
51.879034410275246
 10
-1.1275231024303e-06
 20
52.45186949278239
 10
-1.7963167062235361e-06
 20
53.02470463931439
 10
-2.3850663207927263e-06
 20
53.59753986821892
 10
-2.8757581384443133e-06
 20
54.170375197843235
 10
-3.25524810135022e-06
 20
54.743210641546014
 10
-3.5273759036273247e-06
 20
55.3160461952875
 10
-3.6996815092855e-06
 20
55.88888185123732
 10
-3.7797048823346324e-06
 20
56.46171760156514
 10
-3.7749859867845944e-06
 20
57.03455343844059
 10
-3.6930647866452737e-06
 20
57.6073893540333
 10
-3.5414812459265405e-06
 20
58.18022534051295
 10
-3.327775328638283e-06
 20
58.75306139004918
 10
-3.059486998790372e-06
 20
59.325897494811606
 10
-2.744156220392692e-06
 20
59.89873364696989
 10
-2.3893229574551225e-06
 20
60.471569838693696
 10
-2.0025271739875393e-06
 20
61.04440606215263
 10
-1.5913088339998255e-06
 20
61.61724230951638
 10
-1.1632079015018572e-06
 20
62.19007857295454
 10
-7.257643405035148e-07
 20
62.76291484463681
 10
-2.865181150146789e-07
 20
63.3357511167328
 10
1.4699081095476635e-07
 20
63.908587381412154
 10
5.672224733949517e-07
 20
64.48142363084455
 10
9.666369082959972e-07
 20
65.05425985719958
 10
1.3376941516480185e-06
 20
65.62709605264696
 10
1.6728542394411371e-06
 20
66.19993220935628
 10
1.9645772076654755e-06
 20
66.77276831949716
 10
2.2053230923111552e-06
 20
67.34560437523933
 10
2.387551929368291e-06
 20
67.91844036875239
 10
2.5037237548270127e-06
 20
68.49127629220597
 10
2.5462986046774325e-06
 20
69.06411213776971
 10
2.5077365149096755e-06
 20
69.63694789761331
 10
2.3804975215138633e-06
 20
70.20978356390637
 10
2.157918197259897e-06
 20
70.78261912978952
 10
1.8475566345661083e-06
 20
71.35545460415766
 10
1.4685133966968912e-06
 20
71.92829000869196
 10
1.040222445905561e-06
 20
72.50112536544303
 10
5.821177444454167e-07
 20
73.07396069646148
 10
1.136332545697712e-07
 20
73.64679602379782
 10
-3.457970614680679e-07
 20
74.21963136950266
 10
-7.767392414147902e-07
 20
74.7924667556266
 10
-1.159759323017088e-06
 20
75.36530220422016
 10
-1.4754233440216524e-06
 20
75.93813773733396
 10
-1.7042973421751753e-06
 20
76.51097337701857
 10
-1.8269473552243464e-06
 20
77.08380914532452
 10
-1.8239394209158595e-06
 20
77.65664506430245
 10
-1.6758395769964041e-06
 20
78.2294811560029
 10
-1.3635142531636233e-06
 20
78.80231744202044
 10
-8.983706640127303e-07
 20
79.37515389758539
 10
-3.482389882079015e-07
 20
79.94799041227202
 10
2.1295410379985524e-07
 20
80.52082686639947
 10
7.112819415595309e-07
 20
81.09366314028682
 10
1.0728178546201182e-06
 20
81.66649911425321
 10
1.223635172530608e-06
 20
82.23933466861777
 10
1.0898107347091117e-06
 20
82.81216968370548
 10
6.976142287036653e-07
 20
83.385004208159
 10
4.354602568014022e-07
 20
83.95783889900116
 10
7.735576004579704e-07
 20
84.5306745506639
 10
-9.506709059820407e-06
 20
85.10352328844735
 10
0.000781869333658471
 20
85.67556662884269
 10
0.3931038049555137
 20
85.85608004051846
 10
0.9662133402651006
 20
85.85580753101044
 10
1.5390205383827034
 20
85.85583463661719
 10
2.111838032115678
 20
85.85585240144677
 10
2.6846639521971927
 20
85.855862457847
 10
3.2574963783188555
 20
85.85586648889382
 10
3.830333390172273
 20
85.85586617766315
 10
4.403173067449052
 20
85.85586320723085
 10
4.976013489840802
 20
85.85585926067283
 10
5.548852875016442
 20
85.85585590491219
 10
6.121690759681001
 20
85.85585359647341
 10
6.694527413250574
 20
85.8558521750661
 10
7.267363112991397
 20
85.85585147379132
 10
7.840198136169708
 20
85.85585132575022
 10
8.413032760051745
 20
85.85585156404386
 10
8.98586726190374
 20
85.8558520217733
 10
9.55870190568263
 20
85.85585253940816
 10
10.131536787831523
 20
85.85585305015869
 10
10.704371890317956
 20
85.85585355061234
 10
11.277207192892142
 20
85.85585403858413
 10
11.850042675304286
 20
85.85585451188912
 10
12.422878317304592
 20
85.85585496834229
 10
12.99571409864327
 20
85.85585540575873
 10
13.56854999907053
 20
85.85585582195344
 10
14.141385998336572
 20
85.85585621474145
 10
14.714222076191609
 20
85.8558565819378
 10
15.287058212385842
 20
85.85585692135749
 10
15.859894386669483
 20
85.85585723081562
 10
16.43273057879274
 20
85.85585750812714
 10
17.005566768505815
 20
85.85585775110712
 10
17.57840293569193
 20
85.85585795759383
 10
18.15123906820819
 20
85.85585812681923
 10
18.724075166267124
 20
85.85585826017466
 10
19.296911231143667
 20
85.85585835923713
 10
19.869747264112707
 20
85.85585842558372
 10
20.442583266449162
 20
85.85585846079144
 10
21.015419239427928
 20
85.85585846643737
 10
21.588255184323913
 20
85.85585844409846
 10
22.161091102412037
 20
85.85585839535187
 10
22.733926994967195
 20
85.85585832177459
 10
23.306762863264296
 20
85.85585822494363
 10
23.879598708578257
 20
85.85585810643609
 10
24.452434532183972
 20
85.85585796782891
 10
25.02527033535636
 20
85.85585781069928
 10
25.598106119370318
 20
85.85585763662407
 10
26.17094188550076
 20
85.85585744718047
 10
26.743777635022585
 20
85.85585724394542
 10
27.31661336921071
 20
85.855857028496
 10
27.889449089340044
 20
85.85585680240928
 10
28.462284796685488
 20
85.85585656726222
 10
29.035120492521948
 20
85.85585632463193
 10
29.607956178124333
 20
85.85585607609542
 10
30.18079185476754
 20
85.85585582322973
 10
30.753627523726504
 20
85.85585556761191
 10
31.32646318627611
 20
85.855855310819
 10
31.899298843691273
 20
85.855855054428
 10
32.472134497246884
 20
85.85585480001603
 10
33.044970148217885
 20
85.85585454916009
 10
33.61780579787915
 20
85.8558543034372
 10
34.190641447505605
 20
85.85585406442439
 10
34.76347709837215
 20
85.85585383369877
 10
35.33631275175369
 20
85.85585361283731
 10
35.90914840892515
 20
85.85585340341709
 10
36.48198407116141
 20
85.85585320701512
 10
37.05481973973738
 20
85.85585302520845
 10
37.627655415927975
 20
85.85585285957413
 10
38.20049110100812
 20
85.85585271168922
 10
38.773326796252704
 20
85.85585258313068
 10
39.34616250293664
 20
85.85585247547567
 10
39.91899822233485
 20
85.85585239030117
 10
40.49183395572221
 20
85.85585232918417
 10
41.06466970437363
 20
85.85585229370177
 10
41.63750546956404
 20
85.855852285431
 10
42.210341252568334
 20
85.85585230594891
 10
42.78317705466143
 20
85.85585235683251
 10
43.35601287711821
 20
85.85585243965885
 10
43.92884872121362
 20
85.85585255600498
 10
44.501684588222524
 20
85.85585270744794
 10
45.07452047941986
 20
85.85585289556478
 10
45.64735639608053
 20
85.8558531219325
 10
46.220192339479425
 20
85.85585338812818
 10
46.79302831089148
 20
85.85585369572885
 10
47.36586431159158
 20
85.85585404631153
 10
47.93870034285464
 20
85.8558544414533
 10
48.51153640595557
 20
85.85585488273118
 10
49.08437250216927
 20
85.8558553717222
 10
49.65720863277064
 20
85.85585591000337
 10
50.23004479901216
 20
85.85585649911651
 10
50.802880999269775
 20
85.85585713608317
 10
51.37571722624493
 20
85.85585780900779
 10
51.94855347197468
 20
85.85585850495087
 10
52.521389728496075
 20
85.85585921097278
 10
53.094225987846116
 20
85.85585991413394
 10
53.667062242061924
 20
85.8558606014948
 10
54.239898483180454
 20
85.85586126011576
 10
54.81273470323879
 20
85.85586187705725
 10
55.38557089427396
 20
85.85586243937969
 10
55.95840704832304
 20
85.8558629341435
 10
56.531243157423035
 20
85.85586334840907
 10
57.104079213611016
 20
85.85586366923691
 10
57.676915208924
 20
85.85586388368735
 10
58.24975113539904
 20
85.85586397882084
 10
58.82258698507318
 20
85.85586394169782
 10
59.395422749983446
 20
85.85586375937869
 10
59.968258422166905
 20
85.85586341892387
 10
60.54109399366059
 20
85.85586290739383
 10
61.11392945650154
 20
85.85586221184893
 10
61.686764802726785
 20
85.8558613193496
 10
62.2596000243734
 20
85.85586021695632
 10
62.83243511347839
 20
85.85585889172943
 10
63.40527006207882
 20
85.8558573307294
 10
63.97810486221173
 20
85.85585552101664
 10
64.55093950591416
 20
85.85585344965158
 10
65.12377398522312
 20
85.85585110369463
 10
65.69660829217572
 20
85.8558484702062
 10
66.26944241880896
 20
85.85584553624678
 10
66.84227636615488
 20
85.8558423045357
 10
67.41511025919378
 20
85.85583899356901
 10
67.98794431315521
 20
85.85583597895385
 10
68.56077874531044
 20
85.85583363985182
 10
69.13361377293074
 20
85.8558323554245
 10
69.70644961328739
 20
85.8558325048334
 10
70.27928648365167
 20
85.85583446724019
 10
70.8521246012949
 20
85.85583862180637
 10
71.4249641834883
 20
85.85584534769356
 10
71.99780544750315
 20
85.8558550240633
 10
72.57064861061079
 20
85.85586803007722
 10
73.14349389008244
 20
85.85588474489684
 10
73.7163415031894
 20
85.85590554768373
 10
74.28919166720294
 20
85.8559308175995
 10
74.86204403485442
 20
85.85595993162104
 10
75.43485776225715
 20
85.85592037616495
 10
76.00753487970215
 20
85.85563828108909
 10
76.58030578598758
 20
85.85552457035416
 10
77.15363573066601
 20
85.85640591941463
 10
77.7261571811473
 20
85.85581897221486
 10
78.29948305521813
 20
85.85710211068832
 10
78.70784011948737
 20
85.5963045467706
 10
79.14796728061052
 20
85.26710164925697
 10
79.55295698587406
 20
84.86191234025792
 10
79.95800713603815
 20
84.45649619962337
 10
80.36293928932251
 20
84.0512829417775
 10
80.76792938736394
 20
83.64632244497633
 10
81.17306807617781
 20
83.2413637011686
 10
81.57826493239926
 20
82.83634029454811
 10
81.98336759152812
 20
82.43124895556349
 10
82.38822363492399
 20
82.0260864698568
 10
82.79268064399935
 20
81.62084962309055
 10
83.15497596066847
 20
81.19805868425371
 10
83.53943574756892
 20
80.78446854012888
 10
83.94821713769663
 20
80.38095606205648
 10
84.31868406187452
 20
79.96157253209104
 10
84.69460137110124
 20
79.54444670929757
 10
85.02829253064141
 20
79.10983050525924
 10
85.29617404992062
 20
78.64793266825674
 10
85.53125887301202
 20
78.1713529073783
 10
85.26893359168065
 20
77.83379562049325
 10
84.77118112736376
 20
78.03038460100572
 10
84.30207002418125
 20
78.28055531102524
 10
83.81048811884116
 20
78.47672026942713
 10
83.32008947355838
 20
78.67574124136146
 10
82.84559111319314
 20
78.91314887573985
 10
82.35481032752975
 20
79.11124726400105
 10
81.85143347201787
 20
79.27893566698246
 10
81.35536809113725
 20
79.4642771819865
 10
80.81959316733483
 20
79.55377731270174
 10
80.28187420734173
 20
79.64119893906701
 10
79.70786119571072
 20
79.64378802806104
 10
79.20034843972486
 20
79.48588006753162
 10
78.72208064874835
 20
79.25772199485515
 10
78.28255639989354
 20
78.92288931381069
 10
77.94979465513713
 20
78.48727442867113
 10
77.72229088726796
 20
78.00892956865438
 10
77.56490330647537
 20
77.50125978220927
 10
77.47831806542499
 20
76.9646255035309
 10
77.47594703090309
 20
76.39097065177735
 10
77.56545368255924
 20
75.85544252184822
 10
77.64969885999189
 20
75.31748777168184
 10
77.84047188832635
 20
74.82367342514667
 10
78.00807225381119
 20
74.32025993901797
 10
78.19703318283213
 20
73.82569397480887
 10
78.27871637503418
 20
73.2867030245346
 10
78.5314267857348
 20
72.81789760960697
 10
78.50239907460967
 20
72.2804466530174
 10
78.19239489104784
 20
71.83565754083689
 10
77.99400215790031
 20
71.3447214684183
 10
77.92750804696271
 20
70.7981105004176
 10
78.33002175084492
 20
70.50536085600228
 10
78.83766678102846
 20
70.56711638377675
 10
79.24523503770513
 20
70.3059874500946
 10
79.6603379680002
 20
69.91761829495165
 10
80.13290095437162
 20
70.13505265380103
 10
80.59209259933766
 20
69.947857658089
 10
81.00153674096522
 20
69.5443276975171
 10
81.28600201754591
 20
69.08909510029424
 10
81.21366722497405
 20
68.60120397960644
 10
80.94156432266385
 20
68.14109687628064
 10
81.0872789706807
 20
67.66510378444046
 10
81.5647198268297
 20
67.86994451976986
 10
82.0181923551676
 20
68.0777765729034
 10
82.42910605521749
 20
67.66805471676903
 10
82.76914921218733
 20
67.23167217568168
 10
83.03837551915932
 20
66.7704320094276
 10
83.38953963998291
 20
66.34305248905947
 10
83.66255592449104
 20
65.88330374816361
 10
83.96593365968819
 20
65.43613109742428
 10
84.1631828603447
 20
64.94499856888504
 10
84.56181582429069
 20
64.53728192634007
 10
84.84758513524258
 20
64.0828156280261
 10
85.14293140208402
 20
63.632316234725884
 10
85.41617888642118
 20
63.17266322540134
 10
85.68973029882841
 20
62.71313612379709
 10
85.96270831562434
 20
62.253369560088494
 10
86.22875798231016
 20
61.790810307132105
 10
86.35661862848096
 20
61.30004317383633
 10
85.87350565442685
 20
61.07617396553683
 10
85.41424344358272
 20
60.802043395296565
 10
84.9548723561379
 20
60.52811550674905
 10
84.52161422763852
 20
60.19114513272796
 10
84.08980233391415
 20
59.85068325111236
 10
83.62736215827961
 20
59.5841645829306
 10
83.20021572040426
 20
59.23243929438571
 10
82.75659484442795
 20
58.92048681773603
 10
82.30921799559702
 20
58.617602061692615
 10
81.88128275454915
 20
58.2677811124645
 10
81.44383511185916
 20
57.940925132291525
 10
80.98647601768428
 20
57.66213964834013
 10
80.55677184597121
 20
57.3165892755151
 10
80.09688118628806
 20
57.04391553134753
 10
79.66959234697367
 20
56.69253403028804
 10
79.22042413390353
 20
56.393974010085856
 10
78.77934425181597
 20
56.07588703152828
 10
78.35064275628743
 20
55.72791598425991
 10
77.90869894874977
 20
55.41191470624092
 10
77.45657245892195
 20
55.12049659790833
 10
77.02325361580947
 20
54.78367281379896
 10
76.57136940671643
 20
54.49166978803057
 10
76.13611164469097
 20
54.15952696825738
 10
75.68446025591885
 20
53.866961864512604
 10
75.24827409751721
 20
53.53706039186225
 10
74.79827287312418
 20
53.240511438893165
 10
74.3598071699817
 20
52.916113274072195
 10
73.91247754996738
 20
52.613114497578856
 10
73.47100867164737
 20
52.29596663900131
 10
73.01076013985958
 20
52.02415687452269
 10
72.58359050553378
 20
51.6724875871629
 10
72.12184481517643
 20
51.40429228320786
 10
71.6817862194843
 20
51.08373970118345
 10
71.23456956758096
 20
50.7804681955443
 10
70.77494670837758
 20
50.50714792382694
 10
70.33638350694783
 20
50.1829851406932
 10
69.87554348937863
 20
49.91260334921002
 10
69.42889362381572
 20
49.60796350030093
 10
68.97204806008371
 20
49.32793824418963
 10
68.51188461175832
 20
49.05592307006173
 10
68.05489356913898
 20
48.77624903105341
 10
67.61124252663338
 20
48.464369382848346
 10
67.14962963491128
 20
48.19585347462703
 10
66.68914206254686
 20
47.92462080515043
 10
66.24987535261364
 20
47.602156441787066
 10
65.79222970500483
 20
47.324062759021984
 10
65.33125356925127
 20
47.054009585905774
 10
64.8723388066268
 20
46.77897981782366
 10
64.41321429184019
 20
46.50445643625624
 10
63.95390152092922
 20
46.23038754517761
 10
63.50316250348463
 20
45.935619782200156
 10
63.0462116110088
 20
45.655848812170625
 10
62.58983523928274
 20
45.374690826355305
 10
62.13113515900123
 20
45.0991427692493
 10
61.67249767265995
 20
44.823443597004115
 10
61.21300137755373
 20
44.54981777252664
 10
60.75586364760955
 20
44.27049786804711
 10
60.297982396486255
 20
43.99297298248215
 10
59.84018864452702
 20
43.715236855248854
 10
59.38245469063355
 20
43.43735636271418
 10
58.925008352557654
 20
43.15878150417164
 10
58.47321798209061
 20
42.8665519319195
 10
58.0135397655848
 20
42.593365304552094
 10
57.55171220908611
 20
42.3253676429458
 10
57.09400021199546
 20
42.047434141999915
 10
56.62167047926237
 20
41.80479097669321
 10
56.161825535256845
 20
41.53200686511698
 10
55.70391615496559
 20
41.25454988937072
 10
55.24447093394265
 20
40.9808007611488
 10
54.77793622864086
 20
40.724167162022994
 10
54.31315376529488
 20
40.46330327660299
 10
53.8535778588475
 20
40.18986965090485
 10
53.37781248194343
 20
39.95552086435132
 10
52.919382704617455
 20
39.67932023818411
 10
52.462070603856304
 20
39.400421302095936
 10
51.983821729100555
 20
39.17206820973786
 10
51.52070199405156
 20
38.907190143112786
 10
51.05193043839275
 20
38.65595677845569
 10
50.59288029068236
 20
38.38125385888449
 10
50.134507769374196
 20
38.10491500446267
 10
49.6598630930532
 20
37.8678606073621
 10
49.203111982384335
 20
37.58760732138307
 10
48.724591892982836
 20
37.359908999589656
 10
48.26455333196837
 20
37.08759231385048
 10
47.79160554392569
 20
36.84644059320943
 10
47.32097445447934
 20
36.59985340383194
 10
46.79483118273257
 20
36.48471271712962
 10
46.24313091933703
 20
36.53981938876459
 10
45.81389553066114
 20
36.883609241582896
 10
45.38575068067508
 20
37.23303765022418
 10
44.95641707021946
 20
37.5794687805515
 10
44.49995374141377
 20
37.86041753453644
 10
44.01177852967873
 20
38.06490432382575
 10
43.4956431214604
 20
38.1982079731248
 10
42.92264120491834
 20
38.194543335115405
 10
42.37409256724193
 20
38.136452370253934
 10
41.861474546994835
 20
37.99108404744226
 10
41.39036831457003
 20
37.74543212067615
 10
40.94427625237021
 20
37.4397039226911
 10
40.53652939072617
 20
37.03337864953813
 10
40.25254026507243
 20
36.57521390439889
 10
40.00396165135005
 20
36.10536727621427
 10
39.9158350213625
 20
35.56906054540711
 10
39.819694068886484
 20
35.03552712932176
 10
39.81817940028326
 20
34.46246323490843
 10
39.911057742410506
 20
33.92825824207642
 10
39.91067357925844
 20
33.35480103611654
 10
39.71948300881549
 20
32.860817752510414
 10
39.27556286992093
 20
32.532752291336806
 10
38.79683085456798
 20
32.305695366101595
 10
38.32238636440465
 20
32.06815916040554
 10
37.84968978003664
 20
31.826401633442146
 10
37.36172469131216
 20
31.62150555684053
 10
36.883795992031224
 20
31.39237949251056
 10
36.39357533866389
 20
31.19292883044218
 10
35.91991328620538
 20
30.953502169485795
 10
35.42939875954265
 20
30.75476098031306
 10
34.940101192052204
 20
30.553081791801578
 10
34.44972217186351
 20
30.354013461061335
 10
33.978638278593216
 20
30.10836257322677
 10
33.48650234778209
 20
29.913535799939158
 10
32.99328208081534
 20
29.721326845704635
 10
32.504877993486986
 20
29.517490605268016
 10
32.01774117786444
 20
29.310594900292134
 10
31.528362207905314
 20
29.109112234724506
 10
31.033487674949452
 20
28.920897031876592
 10
30.528575372391305
 20
28.756915148538454
 10
30.03800173043911
 20
28.558316676299157
 10
29.53901765599527
 20
28.380022784246712
 10
29.043791554242482
 20
28.19265634355633
 10
28.55282523762691
 20
27.99500587181498
 10
28.0606932015192
 20
27.80016969588126
 10
27.57334593493792
 20
27.593782064464172
 10
27.08401624855975
 20
27.3921804178071
 10
26.588459564015345
 20
27.20561207457585
 10
26.089232296817304
 20
27.027905301768733
 10
25.59140923020725
 20
26.84680848885284
 10
25.09128811097311
 20
26.671259666402573
 10
24.593576999218488
 20
26.489892551847543
 10
24.096601160063933
 20
26.30674360344862
 10
23.60091617566314
 20
26.121044645824025
  0
LWPOLYLINE
  5
30
330
17
100
AcDbEntity
  8
0
100
AcDbPolyline
 90
500
 70
1
 10
54.866469338855005
 20
3.604479267122918
 10
54.48597650216478
 20
3.69250820379536
 10
54.07116328561474
 20
3.6945265347878258
 10
53.65469053727128
 20
3.6926215646187335
 10
53.23982756486568
 20
3.6945943673927304
 10
52.823564158228315
 20
3.6931946032374126
 10
52.43993381447062
 20
3.7705725008186404
 10
52.029013736965005
 20
3.7820684852575326
 10
51.610756624528925
 20
3.7758514505239047
 10
51.23584472958337
 20
3.874279084069125
 10
50.82352440322292
 20
3.8823947707522803
 10
50.44213052465879
 20
3.965173507708416
 10
50.062682419275546
 20
4.052649757350771
 10
49.65234375609803
 20
4.065549603420102
 10
49.26979352099354
 20
4.145536649440216
 10
48.89148262736061
 20
4.23575837114193
 10
48.47678322538094
 20
4.238130462478803
 10
48.09490603278825
 20
4.31974237686453
 10
47.714350167792226
 20
4.404544258254653
 10
47.33671037587584
 20
4.496386162822126
 10
46.96429331929805
 20
4.60083686587706
 10
46.58390977184154
 20
4.686054758607985
 10
46.203401550915665
 20
4.770971662958293
 10
45.82381907358193
 20
4.858123510043993
 10
45.44582186609474
 20
4.949102537093273
 10
45.089076775922614
 20
5.091388713993729
 10
44.73008882817149
 20
5.228260153708527
 10
44.34980757193604
 20
5.31372499929249
 10
43.99627668357354
 20
5.463770945793937
 10
43.632074069488894
 20
5.588053067323105
 10
43.27752884474911
 20
5.735650189185742
 10
42.912649554945894
 20
5.858298671017703
 10
42.555619804707845
 20
5.999897617726349
 10
42.19211506204478
 20
6.125864549906268
 10
41.850230795877586
 20
6.30402792966736
 10
41.48866567984002
 20
6.43467753475252
 10
41.144712386350875
 20
6.6078458406920095
 10
40.79942672588199
 20
6.777797528199044
 10
40.45489018247439
 20
6.949557744275426
 10
40.113716244735855
 20
7.129436008562813
 10
39.767396912034386
 20
7.296892190546769
 10
39.4253945771501
 20
7.474770527209924
 10
39.08251078358948
 20
7.650520834382001
 10
38.74826318641326
 20
7.847120763992479
 10
38.40393178293606
 20
8.019376231670881
 10
38.076420284161976
 20
8.232238541401308
 10
37.75381692764306
 20
8.45695015473021
 10
37.40731602327351
 20
8.623967983930683
 10
37.09050262629653
 20
8.862657796111343
 10
36.76756655641078
 20
9.086566168317738
 10
36.41981920908409
 20
9.250574818026402
 10
36.09890662408044
 20
9.479368314878403
 10
35.77958393118681
 20
9.712000150825075
 10
35.45908478081996
 20
9.941791767184355
 10
35.13970339721332
 20
10.174281911215727
 10
34.82022379725516
 20
10.406534939998979
 10
34.497959993673184
 20
10.632066306616737
 10
34.17628935270772
 20
10.85902969443807
 10
33.88203512867497
 20
11.152182168410773
 10
33.56546770010213
 20
11.391465822781027
 10
33.240801113741675
 20
11.61119632676995
 10
32.94036416817111
 20
11.889422038127481
 10
32.6320685080935
 20
12.14867127250362
 10
32.31460903568968
 20
12.385769087838193
 10
32.016212235220316
 20
12.669007402759716
 10
31.7191926819287
 20
12.955464366258157
 10
31.404430840849688
 20
13.198914813351974
 10
31.10640687892954
 20
13.483072716029715
 10
30.81392272641712
 20
13.781221900935543
 10
30.52064754033038
 20
14.07585548203566
 10
30.226515719373925
 20
14.36855925931326
 10
29.932035556702356
 20
14.661851610140042
 10
29.637631313119787
 20
14.955832239242275
 10
29.34371394426649
 20
15.250217893644473
 10
29.05069440578271
 20
15.544725320371159
 10
28.758441098640194
 20
15.838921241782597
 10
28.4580264583984
 20
16.13005350588794
 10
28.19840241876597
 20
16.438482772324967
 10
27.937608991438214
 20
16.74604808739078
 10
27.64678298474731
 20
17.041223302814654
 10
27.384102038576035
 20
17.348063608198917
 10
27.117882683529164
 20
17.6533357779306
 10
26.848955469989967
 20
17.957548734107988
 10
26.727293017956576
 20
18.267994158438505
 10
26.900963028573372
 20
18.614585134052795
 10
26.9316379406568
 20
19.014726312787165
 10
26.887816847652303
 20
19.40982998503814
 10
26.596042327232407
 20
19.712364007603398
 10
26.22370752111547
 20
19.82329773903177
 10
25.9474069747709
 20
19.578509258026518
 10
25.624090542878008
 20
19.514609779700656
 10
25.34263831674182
 20
19.814192672761063
 10
25.318701820303264
 20
20.21919774718245
 10
25.249593561912466
 20
20.605852921561
 10
24.92338466216312
 20
20.83035749508837
 10
24.955362305052518
 20
21.187273165556075
 10
25.162569305921156
 20
21.47407393378374
 10
25.382034567573633
 20
21.793566334498593
 10
25.41164757759487
 20
22.199989318218233
 10
25.15043297566208
 20
22.504475896460782
 10
24.75342841302603
 20
22.549557043227157
 10
24.36388564895564
 20
22.612322861806526
 10
23.947014284193948
 20
22.6152339318353
 10
23.567225698941016
 20
22.510156380945983
 10
23.60339395934671
 20
22.147373185737607
 10
23.863661825331814
 20
21.88187127060481
 10
24.09857642891105
 20
21.574656291529795
 10
24.394893942431697
 20
21.2788749225319
 10
24.10416600055789
 20
21.264348694247563
 10
23.853802554025208
 20
21.54446285600873
 10
23.55881573737254
 20
21.840155538277678
 10
23.33966117546414
 20
22.168547154091076
 10
23.34884844175182
 20
22.506895382087396
 10
23.462792784661648
 20
22.75035694232134
 10
23.815932252254925
 20
22.883134182399157
 10
24.191578775387374
 20
22.973130425041116
 10
24.435169032013317
 20
23.267939741198628
 10
24.78938032078
 20
23.41666741447296
 10
25.134192368619967
 20
23.588264979505695
 10
25.479968288350324
 20
23.75703676737089
 10
25.79528234210832
 20
23.999345800493117
 10
26.150323296692203
 20
24.145746154745733
 10
26.487578140444516
 20
24.335085949333692
 10
26.8632722266343
 20
24.431625203048952
 10
27.212745373354167
 20
24.5914674044532
 10
27.555375171258007
 20
24.76783091138458
 10
27.93057260994367
 20
24.86556917824597
 10
28.27762823508043
 20
25.031247793046894
 10
28.61194503076135
 20
25.22768066268897
 10
28.95541558986764
 20
25.402014392522574
 10
29.317659513877743
 20
25.531025210194233
 10
29.63413849034658
 20
25.7705223849013
 10
30.01123749220844
 20
25.863669872152936
 10
30.353642045644214
 20
26.040577167333907
 10
30.658685182579262
 20
26.307682900940517
 10
31.037576054250554
 20
26.39650443179633
 10
31.400528683184945
 20
26.52380428442799
 10
31.723820159252373
 20
26.746854630210283
 10
32.06526265511015
 20
26.92608453784389
 10
32.435192099928926
 20
27.03654086694538
 10
32.78010524313506
 20
27.20739189068035
 10
33.131900661525584
 20
27.361627632325145
 10
33.47501793535311
 20
27.536814268270273
 10
33.83935640298454
 20
27.660768410324195
 10
34.18237680261292
 20
27.836188921274744
 10
34.52513750373814
 20
28.01223639987371
 10
34.86441731582021
 20
28.196687488009758
 10
35.236258515235896
 20
28.302528433235405
 10
35.55486302513213
 20
28.536894116314645
 10
35.92222155709832
 20
28.653557178092367
 10
36.27990406052942
 20
28.79358023918949
 10
36.606159606378235
 20
29.009474687505875
 10
36.96999153939956
 20
29.134651712285233
 10
37.315139000248266
 20
29.304937043189746
 10
37.66719385691347
 20
29.45854644555468
 10
38.013967809146294
 20
29.62490507813903
 10
38.348749746987366
 20
29.820214991204576
 10
38.72855215160525
 20
29.90683573101042
 10
39.06933353011117
 20
30.08766629948198
 10
39.40859527546861
 20
30.27228432509496
 10
39.75204965698358
 20
30.44547671361736
 10
40.00693375593123
 20
30.721782247795765
 10
40.31987331265609
 20
30.95436093892438
 10
40.641387706245446
 20
31.1826705892995
 10
40.93231698796203
 20
31.483881513527777
 10
41.29439397619865
 20
31.613299164916505
 10
41.70975771044663
 20
31.614067701363897
 10
42.08333295496894
 20
31.715722176197804
 10
42.497047446395406
 20
31.720471971861706
 10
42.88120569004777
 20
31.796576914215457
 10
43.26032430914309
 20
31.884848614725495
 10
43.626811639650306
 20
32.00361494291986
 10
43.98192092893804
 20
32.1498502924981
 10
44.34343303120046
 20
32.28062788415797
 10
44.698883675890265
 20
32.42603912889776
 10
45.03569455256972
 20
32.61645075436735
 10
45.36265377746416
 20
32.830646371188166
 10
45.68019687280945
 20
33.06757453567173
 10
46.00246762864685
 20
33.293089118079195
 10
46.29463987414242
 20
33.591267932352146
 10
46.58849684022915
 20
33.8853794713412
 10
46.88222573465517
 20
34.17980020264523
 10
47.17851679196573
 20
34.468035325627156
 10
47.493637826715705
 20
34.710810861772394
 10
47.838858959724824
 20
34.88091833090874
 10
48.184072405770124
 20
35.051044270366894
 10
48.56153171024521
 20
35.14332369885115
 10
48.96172718197712
 20
35.18070795970143
 10
49.30812160226732
 20
35.348978289330816
 10
49.65549845033236
 20
35.476621764568534
 10
49.95069478304121
 20
35.625008248571696
 10
50.267466506400034
 20
35.86268566922064
 10
50.608479824800035
 20
36.042642152115334
 10
50.9623340140407
 20
36.19190580955942
 10
51.309736188341375
 20
36.35674932990433
 10
51.63637769185299
 20
36.57171205892295
 10
52.003415045632984
 20
36.68915051103093
 10
52.35144310171255
 20
36.85248146981867
 10
52.67316016728529
 20
37.07933277877381
 10
53.00038372975316
 20
37.29289022824052
 10
53.34386433603957
 20
37.46719970203564
 10
53.68450959735174
 20
37.648354304121696
 10
54.05931507320898
 20
37.74703885295951
 10
54.361606043304214
 20
38.02078890507665
 10
54.704254131787785
 20
38.197108254642565
 10
55.01560633799992
 20
38.44898254763431
 10
55.38465210134577
 20
38.56157227253253
 10
55.709048025386565
 20
38.78195624503855
 10
56.05635435550682
 20
38.9470296044681
 10
56.37804581221172
 20
39.17394273869567
 10
56.71248586069279
 20
39.370078049755996
 10
57.07585054825526
 20
39.496383104859056
 10
57.3960841481267
 20
39.726815816825805
 10
57.73820781178931
 20
39.904401239906754
 10
58.077936477206855
 20
40.08776870023292
 10
58.40848048481789
 20
40.293309886001005
 10
58.72121105601083
 20
40.541856511562315
 10
59.07194274941265
 20
40.69866031250188
 10
59.40245791915454
 20
40.904271119044694
 10
59.76604510676022
 20
41.03003901152598
 10
60.08434483766678
 20
41.26514049617569
 10
60.42480884303745
 20
41.44673268881388
 10
60.767159120237764
 20
41.623771018418786
 10
61.06889596085933
 20
41.89885885742646
 10
61.424205193312005
 20
42.04461150150687
 10
61.75357101707066
 20
42.25299707471063
 10
62.08497571159479
 20
42.456460378460186
 10
62.431750886514216
 20
42.62281605997982
 10
62.74059349388399
 20
42.880749060532914
 10
63.07496767516367
 20
43.07704338908401
 10
63.420057773111985
 20
43.24746720628063
 10
63.74361687062772
 20
43.46987145673277
 10
64.0645820313512
 20
43.69853802456883
 10
64.43622335437922
 20
43.80486151408039
 10
64.73143746883898
 20
44.09569660705163
 10
65.05266965007468
 20
44.32371853034574
 10
65.43142882883139
 20
44.41285799602202
 10
65.7735555318215
 20
44.59043608151735
 10
66.07736127589675
 20
44.86052914574795
 10
66.40867643669684
 20
45.06420860302851
 10
66.75452234637875
 20
45.23280772928709
 10
67.07859685170368
 20
45.453967675216504
 10
67.39505779607572
 20
45.69350838325597
 10
67.71726368081066
 20
45.919179578356506
 10
68.0487806058004
 20
46.12237193379392
 10
68.3821853389151
 20
46.32100671725315
 10
68.70395159827548
 20
46.547739261895344
 10
69.05421137351054
 20
46.70568237407313
 10
69.37199154373239
 20
46.942038189174085
 10
69.71494172967216
 20
47.117628210963765
 10
70.01823142898627
 20
47.388967117456
 10
70.36267330993199
 20
47.56095586893123
 10
70.67691473379642
 20
47.8058549734824
 10
71.00388470060028
 20
48.020024657039755
 10
71.34667294062858
 20
48.19600565084546
 10
71.66951375887878
 20
48.42014398084194
 10
71.9614526271853
 20
48.7188862174964
 10
72.30782021193076
 20
48.886225908741906
 10
72.6302549837184
 20
49.11134452161531
 10
72.97273268405594
 20
49.288075224553815
 10
73.29903766128895
 20
49.5038503349526
 10
73.58784842324334
 20
49.81014448838577
 10
73.92488793284471
 20
50.00000414567052
 10
74.22754379567455
 20
50.27287326935312
 10
74.56923884862312
 20
50.451493449672576
 10
74.89715186483775
 20
50.66338695409368
 10
75.21817890582805
 20
50.89190464936925
 10
75.52277608989041
 20
51.16009685832751
 10
75.88775823906501
 20
51.282374065605005
 10
76.19756256064777
 20
51.53581291558595
 10
76.42751245875783
 20
51.84601645776003
 10
76.78124120804495
 20
52.00835936460422
 10
77.1047051511041
 20
52.23121718698441
 10
77.42450986117746
 20
52.462764827069186
 10
77.75193919510973
 20
52.675819398534884
 10
78.06012954258294
 20
52.9353263825307
 10
78.40907042205366
 20
53.09645349702646
 10
78.7027726924375
 20
53.39093850730553
 10
79.04841631893818
 20
53.560026027532146
 10
79.3678436475871
 20
53.79240531059106
 10
79.69282588995117
 20
54.01137474901519
 10
80.01588026404006
 20
54.23499897800837
 10
80.32991882717812
 20
54.48038669783287
 10
80.6294974681953
 20
54.76066126709152
 10
81.00045012820917
 20
54.86857651842819
 10
81.31830512313174
 20
55.10329589938829
 10
81.54597718217708
 20
55.42959262031281
 10
81.8909201488395
 20
55.58271148655789
 10
82.21938418771369
 20
55.640436796339785
 10
82.5944915750495
 20
55.73671506446438
 10
82.88130444454943
 20
55.98699106467728
 10
83.10667484815221
 20
56.24956349751677
 10
83.46320069045349
 20
56.39661695065403
 10
83.82401368043604
 20
56.34761806948915
 10
84.17088935770349
 20
56.507342603169235
 10
84.48067861182552
 20
56.76304356813179
 10
84.80897693545289
 20
56.97403174660432
 10
85.13172297648369
 20
57.19839964788042
 10
85.46800180009112
 20
57.39009565579792
 10
85.77895674139546
 20
57.642929032134525
 10
86.08840787836078
 20
57.89939292491265
 10
86.41840938931243
 20
58.106244147120506
 10
86.75616237860831
 20
58.2943564537056
 10
87.08115451453256
 20
58.51339279138121
 10
87.39997020929529
 20
58.75525388619341
 10
87.69734940391169
 20
58.60782070994993
 10
87.85811991337462
 20
58.266715916058686
 10
88.07349989193784
 20
57.940030508824734
 10
88.25620633647866
 20
57.599986629041915
 10
88.42302342189971
 20
57.25340375119152
 10
88.5570988047692
 20
56.893257643945624
 10
88.73265058275047
 20
56.55029161618612
 10
88.85671122347254
 20
56.185997261762665
 10
89.00781587245659
 20
55.8329049023269
 10
89.18335842300651
 20
55.48993505315577
 10
89.30325719231355
 20
55.12391679513206
 10
89.44293464241001
 20
54.766091134937184
 10
89.5654523307596
 20
54.401157668699696
 10
89.72378774844663
 20
54.05106039172717
 10
89.84038708441018
 20
53.68367546366451
 10
89.99327479691553
 20
53.331321673321874
 10
90.0902478409939
 20
52.95580726898126
 10
90.17725011808155
 20
52.576162837725796
 10
90.30554130538872
 20
52.213620833058854
 10
90.40892579759289
 20
51.84076213748634
 10
90.54106028400165
 20
51.479812079431554
 10
90.64220990008387
 20
51.10602766785916
 10
90.72262637127933
 20
50.723655306483984
 10
90.80407912918128
 20
50.341712189117175
 10
90.90290078748579
 20
49.96696350586061
 10
90.99763330426816
 20
49.59052104472714
 10
91.08539907678292
 20
49.21119286363237
 10
91.15346516026952
 20
48.8237048041676
 10
91.21240352233603
 20
48.43243591869716
 10
91.25208525450083
 20
48.03319067595569
 10
91.35419270266068
 20
47.659803011420344
 10
91.44022218557917
 20
47.27975563562674
 10
91.44648777954922
 20
46.8666689752386
 10
91.5319215439929
 20
46.486374844765535
 10
91.56526926567209
 20
46.08450596899199
 10
91.61681585059316
 20
45.69017530898573
 10
91.64524613090192
 20
45.28626956430344
 10
91.70908916399341
 20
44.89703226620338
 10
91.7095232302883
 20
44.48153018820908
 10
91.808610811908
 20
44.106891842009084
 10
91.79945148188253
 20
43.68741523716286
 10
91.80369164036998
 20
43.27349128046692
 10
91.82238208000997
 20
42.86556417255177
 10
91.89188434648518
 20
42.47859653884478
 10
91.89171702614311
 20
42.063004846072914
 10
91.89220753791527
 20
41.6473209509534
 10
91.89169681399196
 20
41.231547616218805
 10
91.89178424645156
 20
40.81606742140127
 10
91.8902585194668
 20
40.400866645589375
 10
91.82059975534706
 20
40.0140940861094
 10
91.79989871805968
 20
39.606991450457144
 10
91.8020748321016
 20
39.190407121852274
 10
91.81118770254109
 20
38.77095108645778
 10
91.70956169268658
 20
38.39736396713833
 10
91.71048539739628
 20
37.981299427595786
 10
91.65394802207292
 20
37.58903602490482
 10
91.62534345056218
 20
37.18520247337117
 10
91.61894263827926
 20
36.77217182235471
 10
91.53081442392288
 20
36.39299376966116
 10
91.49299174167137
 20
35.99297848323606
 10
91.44704595495254
 20
35.596327896848166
 10
91.36860101609322
 20
35.213138900041216
 10
91.36149282614697
 20
34.80040125433838
 10
91.25900127129319
 20
34.42717269200501
 10
91.1678822404668
 20
34.04923347598118
 10
91.13174778163442
 20
33.64851890451596
 10
91.02313879781234
 20
33.27782426422815
 10
90.92351926909326
 20
32.90340606971836
 10
90.87892288484103
 20
32.506196542525885
 10
90.7878906982115
 20
32.12822135445783
 10
90.66975170929041
 20
31.761474171531525
 10
90.53539791389142
 20
31.401443381359563
 10
90.44780098488245
 20
31.022045262994887
 10
90.36529113862053
 20
30.640540005963306
 10
90.26246667226701
 20
30.267449340088245
 10
90.10312387227629
 20
29.91776933452836
 10
90.00305045998267
 20
29.543539144750802
 10
89.91176414745075
 20
29.165669219078136
 10
89.82643562526103
 20
28.785331495843806
 10
89.68819758718658
 20
28.42690961166761
 10
89.54670768505851
 20
28.069834693685358
 10
89.46157487762424
 20
27.689415902745022
 10
89.32036505753426
 20
27.33222497098403
 10
89.1910474464031
 20
26.97010812498572
 10
89.05094200547465
 20
26.6124597443981
 10
88.91962960767735
 20
26.251169166090953
 10
88.74214026783726
 20
25.909005703446866
 10
88.61373754096323
 20
25.546509899981267
 10
88.44010216071443
 20
25.202750075005614
 10
88.26978859359282
 20
24.857614309981084
 10
88.12151669116857
 20
24.5033485885015
 10
87.95069987492238
 20
24.15842127608962
 10
87.78087938355198
 20
23.813081272401572
 10
87.61190949104957
 20
23.467388939126295
 10
87.44842289373855
 20
23.11942535061621
 10
87.22452992405184
 20
22.796482900797965
 10
87.05098773412179
 20
22.45268447512842
 10
86.8457479649814
 20
22.12201561666218
 10
86.67226953669226
 20
21.77819078005621
 10
86.47455783936874
 20
21.444403692144977
 10
86.25115740026985
 20
21.121257229477255
 10
86.09260756133044
 20
20.771248768695518
 10
85.85848067640107
 20
20.452545345366925
 10
85.62112540571387
 20
20.135179163203862
 10
85.40857470768283
 20
19.80753859063764
 10
85.22130933937571
 20
19.469424491570763
 10
85.00870995143389
 20
19.14180408702599
 10
84.76732339995019
 20
18.826107716042507
 10
84.54792642891603
 20
18.50130296260593
 10
84.30400820306913
 20
18.186655245481063
 10
84.01016480611031
 20
17.892687211337513
 10
83.77843774263926
 20
17.5729897493133
 10
83.55673373018443
 20
17.249140602261697
 10
83.32254160814989
 20
16.930464168896176
 10
83.03217492068174
 20
16.635056127275767
 10
82.78447935582787
 20
16.321976238525632
 10
82.50646280499892
 20
16.021457796920213
 10
82.21139267474146
 20
15.727992773570762
 10
81.97316465636993
 20
15.410920804490761
 10
81.69607780765318
 20
15.11008010506329
 10
81.39369233418313
 20
14.819756342949537
 10
81.0988900167378
 20
14.525983151029552
 10
80.80985258770806
 20
14.229964088937027
 10
80.51355031128512
 20
13.937576063104663
 10
80.21928880052376
 20
13.642850020734851
 10
79.9258386441049
 20
13.349945019517259
 10
79.60230824455607
 20
13.127195340223953
 10
79.31223521584927
 20
12.823280715817626
 10
79.01522598034043
 20
12.536891668563168
 10
78.69596023456226
 20
12.304215883329805
 10
78.38114562440997
 20
12.060706507004069
 10
78.08600389593997
 20
11.769695722132576
 10
77.76209094634177
 20
11.548145651064777
 10
77.46194632772618
 20
11.269213814905052
 10
77.15022158273577
 20
11.018238898929432
 10
76.83098447423646
 20
10.785400444163885
 10
76.50916712494303
 20
10.558791241560218
 10
76.19165260628559
 20
10.321794086848776
 10
75.86726270868795
 20
10.101395565221514
 10
75.53111952870917
 20
9.90937197732166
 10
75.19822997312497
 20
9.709493445281325
 10
74.87856647769084
 20
9.477684379449846
 10
74.56122926921167
 20
9.240259160101665
 10
74.21252792043224
 20
9.078553673638785
 10
73.89074704145477
 20
8.851856423874437
 10
73.55977980027336
 20
8.6473370143317
 10
73.22656402373134
 20
8.448246049351932
 10
72.88347568460591
 20
8.272989558856413
 10
72.56004646883335
 20
8.050271746138213
 10
72.21218083001493
 20
7.8865486773533044
 10
71.86653725594341
 20
7.717461069719631
 10
71.52136011723884
 20
7.54724738749727
 10
71.17689840464325
 20
7.375306513859583
 10
70.83342479751278
 20
7.200980142607255
 10
70.49044903382409
 20
7.02545187096562
 10
70.13106506481455
 20
6.889536511143868
 10
69.77094455069184
 20
6.755399328523479
 10
69.42754703813974
 20
6.5808892487079245
 10
69.06411778868913
 20
6.45474005979053
 10
68.70890150900411
 20
6.308763007877919
 10
68.34429692604542
 20
6.185451325056152
 10
67.98925778413245
 20
6.039046624731714
 10
67.62451756589824
 20
5.916062394431538
 10
67.26856380235515
 20
5.77186578605075
 10
66.90706798258871
 20
5.641048884967991
 10
66.53346390953658
 20
5.539463893184368
 10
66.17454321052752
 20
5.402430100644566
 10
65.79414488713758
 20
5.3172478801723715
 10
65.41725199615033
 20
5.223602797251857
 10
65.06568562719094
 20
5.0688140813636435
 10
64.69226536509494
 20
4.966785330676684
 10
64.31734269059037
 20
4.868383724402716
 10
63.94132426028311
 20
4.772627506648753
 10
63.56377471975609
 20
4.68056771595253
 10
63.18772701889559
 20
4.584882163565284
 10
62.80744393709767
 20
4.499421725278834
 10
62.42145849749814
 20
4.427727996534526
 10
62.031176365088136
 20
4.366407401846803
 10
61.634050545562374
 20
4.3216089294104725
 10
61.251335945826376
 20
4.242018694707105
 10
60.876527616239926
 20
4.143341035380537
 10
60.48382715940384
 20
4.0878587922775305
 10
60.08152279348927
 20
4.055562436721949
 10
59.707856884905496
 20
3.954126730285615
 10
59.29416104064705
 20
3.9493318346106756
 10
58.908366863925735
 20
3.877176350109376
 10
58.49380137029214
 20
3.8744809581473203
 10
58.115144287082025
 20
3.7850947544916824
 10
57.69967341868829
 20
3.784585227826191
 10
57.322644672648195
 20
3.691264329733419
 10
56.90593449502099
 20
3.6937700399471405
 10
56.490250719227035
 20
3.6937264140900186
 10
56.07466559467176
 20
3.6935829377649596
 10
55.658791488343766
 20
3.693889778563947
 10
55.2419489320694
 20
3.696127668584153
  0
ENDSEC
  0
SECTION
  2
OBJECTS
  0
DICTIONARY
  5
A
330
0
100
AcDbDictionary
281
1
  3
ACAD_COLOR
350
B
  3
ACAD_GROUP
350
C
  3
ACAD_LAYOUT
350
D
  3
ACAD_MATERIAL
350
E
  3
ACAD_MLEADERSTYLE
350
F
  3
ACAD_MLINESTYLE
350
10
  3
ACAD_PLOTSETTINGS
350
11
  3
ACAD_PLOTSTYLENAME
350
12
  3
ACAD_SCALELIST
350
14
  3
ACAD_TABLESTYLE
350
15
  3
ACAD_VISUALSTYLE
350
16
  3
EZDXF_META
350
2D
  0
DICTIONARY
  5
B
330
A
100
AcDbDictionary
281
1
  0
DICTIONARY
  5
C
330
A
100
AcDbDictionary
281
1
  0
DICTIONARY
  5
D
330
A
100
AcDbDictionary
281
1
  3
Model
350
1A
  3
Layout1
350
1E
  0
DICTIONARY
  5
E
330
A
100
AcDbDictionary
281
1
  3
ByBlock
350
1F
  3
ByLayer
350
20
  3
Global
350
21
  0
DICTIONARY
  5
F
330
A
100
AcDbDictionary
281
1
  3
Standard
350
2C
  0
DICTIONARY
  5
10
330
A
100
AcDbDictionary
281
1
  3
Standard
350
22
  0
DICTIONARY
  5
11
330
A
100
AcDbDictionary
281
1
  0
ACDBDICTIONARYWDFLT
  5
12
330
A
100
AcDbDictionary
281
1
  3
Normal
350
13
100
AcDbDictionaryWithDefault
340
13
  0
ACDBPLACEHOLDER
  5
13
330
12
  0
DICTIONARY
  5
14
330
A
100
AcDbDictionary
281
1
  0
DICTIONARY
  5
15
330
A
100
AcDbDictionary
281
1
  0
DICTIONARY
  5
16
330
A
100
AcDbDictionary
281
1
  0
LAYOUT
  5
1A
330
D
100
AcDbPlotSettings
  1

  4
A3
  6

 40
7.5
 41
20.0
 42
7.5
 43
20.0
 44
420.0
 45
297.0
 46
0.0
 47
0.0
 48
0.0
 49
0.0
140
0.0
141
0.0
142
1.0
143
1.0
 70
1024
 72
1
 73
0
 74
5
  7

 75
16
 76
0
 77
2
 78
300
147
1.0
148
0.0
149
0.0
100
AcDbLayout
  1
Model
 70
1
 71
0
 10
0.0
 20
0.0
 11
420.0
 21
297.0
 12
0.0
 22
0.0
 32
0.0
 14
1e+20
 24
1e+20
 34
1e+20
 15
-1e+20
 25
-1e+20
 35
-1e+20
146
0.0
 13
0.0
 23
0.0
 33
0.0
 16
1.0
 26
0.0
 36
0.0
 17
0.0
 27
1.0
 37
0.0
 76
1
330
17
  0
LAYOUT
  5
1E
330
D
100
AcDbPlotSettings
  1

  4
A3
  6

 40
7.5
 41
20.0
 42
7.5
 43
20.0
 44
420.0
 45
297.0
 46
0.0
 47
0.0
 48
0.0
 49
0.0
140
0.0
141
0.0
142
1.0
143
1.0
 70
0
 72
1
 73
0
 74
5
  7

 75
16
 76
0
 77
2
 78
300
147
1.0
148
0.0
149
0.0
100
AcDbLayout
  1
Layout1
 70
1
 71
1
 10
0.0
 20
0.0
 11
420.0
 21
297.0
 12
0.0
 22
0.0
 32
0.0
 14
1e+20
 24
1e+20
 34
1e+20
 15
-1e+20
 25
-1e+20
 35
-1e+20
146
0.0
 13
0.0
 23
0.0
 33
0.0
 16
1.0
 26
0.0
 36
0.0
 17
0.0
 27
1.0
 37
0.0
 76
1
330
1B
  0
MATERIAL
  5
1F
102
{ACAD_REACTORS
330
E
102
}
330
E
100
AcDbMaterial
  1
ByBlock
  2

 70
0
 40
1.0
 71
1
 41
1.0
 91
-1023410177
 42
1.0
 72
1
  3

 73
1
 74
1
 75
1
 44
0.5
 73
0
 45
1.0
 46
1.0
 77
1
  4

 78
1
 79
1
170
1
 48
1.0
171
1
  6

172
1
173
1
174
1
140
1.0
141
1.0
175
1
  7

176
1
177
1
178
1
143
1.0
179
1
  8

270
1
271
1
272
1
145
1.0
146
1.0
273
1
  9

274
1
275
1
276
1
 42
1.0
 72
1
  3

 73
1
 74
1
 75
1
 94
63
  0
MATERIAL
  5
20
102
{ACAD_REACTORS
330
E
102
}
330
E
100
AcDbMaterial
  1
ByLayer
  2

 70
0
 40
1.0
 71
1
 41
1.0
 91
-1023410177
 42
1.0
 72
1
  3

 73
1
 74
1
 75
1
 44
0.5
 73
0
 45
1.0
 46
1.0
 77
1
  4

 78
1
 79
1
170
1
 48
1.0
171
1
  6

172
1
173
1
174
1
140
1.0
141
1.0
175
1
  7

176
1
177
1
178
1
143
1.0
179
1
  8

270
1
271
1
272
1
145
1.0
146
1.0
273
1
  9

274
1
275
1
276
1
 42
1.0
 72
1
  3

 73
1
 74
1
 75
1
 94
63
  0
MATERIAL
  5
21
102
{ACAD_REACTORS
330
E
102
}
330
E
100
AcDbMaterial
  1
Global
  2

 70
0
 40
1.0
 71
1
 41
1.0
 91
-1023410177
 42
1.0
 72
1
  3

 73
1
 74
1
 75
1
 44
0.5
 73
0
 45
1.0
 46
1.0
 77
1
  4

 78
1
 79
1
170
1
 48
1.0
171
1
  6

172
1
173
1
174
1
140
1.0
141
1.0
175
1
  7

176
1
177
1
178
1
143
1.0
179
1
  8

270
1
271
1
272
1
145
1.0
146
1.0
273
1
  9

274
1
275
1
276
1
 42
1.0
 72
1
  3

 73
1
 74
1
 75
1
 94
63
  0
MLINESTYLE
  5
22
102
{ACAD_REACTORS
330
10
102
}
330
10
100
AcDbMlineStyle
  2
Standard
 70
0
  3

 62
256
 51
90.0
 52
90.0
 71
2
 49
0.5
 62
256
  6
BYLAYER
 49
-0.5
 62
256
  6
BYLAYER
  0
MLEADERSTYLE
  5
2C
102
{ACAD_REACTORS
330
F
102
}
330
F
100
AcDbMLeaderStyle
179
2
170
2
171
1
172
0
 90
2
 40
0.0
 41
0.0
173
1
 91
-1056964608
 92
-2
290
1
 42
2.0
291
1
 43
8.0
  3
Standard
 44
4.0
300

342
29
174
1
175
1
176
0
178
1
 93
-1056964608
 45
4.0
292
0
297
0
 46
4.0
 94
-1056964608
 47
1.0
 49
1.0
140
1.0
294
1
141
0.0
177
0
142
1.0
295
0
296
0
143
3.75
271
0
272
9
273
9
  0
DICTIONARY
  5
2D
330
A
100
AcDbDictionary
280
1
281
1
  3
CREATED_BY_EZDXF
350
2E
  3
WRITTEN_BY_EZDXF
350
33
  0
DICTIONARYVAR
  5
2E
330
2D
100
DictionaryVariables
280
0
  1
1.4.4 @ 2026-07-22T16:12:25.578535+00:00
  0
DICTIONARYVAR
  5
33
330
2D
100
DictionaryVariables
280
0
  1
1.4.4 @ 2026-07-22T16:12:25.583444+00:00
  0
ENDSEC
  0
EOF
